<svg width="36" height="48" viewBox="0 0 36 48" fill="none" xmlns="http://www.w3.org/2000/svg">
<g clip-path="url(#clip0_0_172)">
<path d="M24 0V12H36L24 0ZM21 12V0H4.5C2.01469 0 0 2.01469 0 4.5V43.5C0 45.9844 2.01469 48 4.5 48H31.5C33.9853 48 36 45.9853 36 43.5V15H24.0844C22.3406 15 21 13.6594 21 12ZM12 26.25C12 26.6625 11.6625 27 11.25 27H10.5C9.66562 27 9 27.6656 9 28.5V31.5C9 32.3344 9.66562 33 10.5 33H11.25C11.6625 33 12 33.3375 12 33.75V35.25C12 35.6625 11.6625 36 11.25 36H10.5C8.01562 36 6 33.9844 6 31.5V28.5C6 26.0156 8.01562 24 10.5 24H11.25C11.6625 24 12 24.3375 12 24.75V26.25ZM16.1531 36H15C14.5898 36 14.25 35.6602 14.25 35.25V33.75C14.25 33.3375 14.5875 33 15 33H16.1484C16.7109 33 17.1216 32.6719 17.1216 32.3789C17.1216 32.2617 17.0513 32.1328 16.9223 32.0156L14.8711 30.2578C14.0906 29.5781 13.6312 28.6219 13.6312 27.6188C13.6312 25.6313 15.4125 24 17.6063 24H18.75C19.1602 24 19.5 24.3398 19.5 24.75V26.25C19.5 26.6625 19.1625 27 18.75 27H17.6063C17.0438 27 16.6331 27.3281 16.6331 27.6211C16.6331 27.7383 16.7034 27.8672 16.8323 27.9844L18.8836 29.7422C19.6688 30.4219 20.1258 31.3828 20.1258 32.3784C20.1187 34.3687 18.3375 36 16.1531 36ZM27 26.7V24.75C27 24.3375 27.3375 24 27.75 24H29.25C29.6625 24 30 24.3375 30 24.75V26.6953C30 30.0234 28.7925 33.1641 26.6016 35.52C26.325 35.8219 25.9219 36 25.5 36C25.0781 36 24.6797 35.8242 24.3984 35.5195C22.2094 33.1688 21 30.0281 21 26.7V24.75C21 24.3375 21.3375 24 21.75 24H23.25C23.6625 24 24 24.3375 24 24.75V26.6953C24 28.6059 24.5391 30.4688 25.5 32.0278C26.4656 30.4688 27 28.6031 27 26.7Z" fill="#28A745"/>
</g>
<defs>
<clipPath id="clip0_0_172">
<rect width="36" height="48" fill="white"/>
</clipPath>
</defs>
</svg>
