<svg width="39" height="48" viewBox="0 0 39 48" fill="none" xmlns="http://www.w3.org/2000/svg">
<path d="M24 0H4.8C3.52696 0 2.30606 0.505713 1.40589 1.40589C0.505713 2.30606 0 3.52696 0 4.8V43.2C0 44.473 0.505713 45.6939 1.40589 46.5941C2.30606 47.4943 3.52696 48 4.8 48H33.6C34.873 48 36.0939 47.4943 36.9941 46.5941C37.8943 45.6939 38.4 44.473 38.4 43.2V14.4L24 0ZM9.6528 35.2896C9.6528 37.596 8.5464 38.4 6.7728 38.4C6.3504 38.4 5.7984 38.3304 5.436 38.208L5.6424 36.732C5.892 36.816 6.216 36.876 6.5808 36.876C7.3464 36.876 7.8288 36.528 7.8288 35.268V30.1752H9.6552L9.6528 35.2896ZM13.1544 38.388C12.2304 38.388 11.316 38.148 10.8624 37.896L11.2344 36.3816C11.724 36.6336 12.4848 36.888 13.2648 36.888C14.1048 36.888 14.5464 36.5376 14.5464 36.012C14.5464 35.5056 14.1648 35.2176 13.1928 34.8696C11.844 34.4016 10.968 33.6552 10.968 32.4792C10.968 31.0968 12.1224 30.0384 14.0328 30.0384C14.9448 30.0384 15.6144 30.2304 16.0992 30.4488L15.6864 31.9248C15.3624 31.7688 14.7864 31.5408 13.9944 31.5408C13.2024 31.5408 12.816 31.9008 12.816 32.3208C12.816 32.8368 13.272 33.0672 14.3208 33.4632C15.7512 33.9912 16.4232 34.7352 16.4232 35.8776C16.4256 37.236 15.3768 38.388 13.1544 38.388ZM21.0888 38.4C18.6864 38.4 17.2824 36.588 17.2824 34.2816C17.2824 31.8528 18.8328 30.0384 21.2232 30.0384C23.7072 30.0384 25.0656 31.9008 25.0656 34.1352C25.0632 36.792 23.4552 38.4 21.0888 38.4ZM32.9616 38.268H31.0368L29.3064 35.1432C28.7888 34.2164 28.3201 33.2631 27.9024 32.2872L27.864 32.2992C27.9144 33.3672 27.9384 34.5096 27.9384 35.832V38.2704H26.256V30.1752H28.3944L30.0768 33.1416C30.5568 33.9912 31.0368 35.0016 31.4016 35.9136H31.4352C31.3152 34.8456 31.2792 33.7536 31.2792 32.5392V30.1752H32.964V38.268H32.9616ZM24 16.8H21.6V4.8L33.6 16.8H24Z" fill="#007BFF"/>
</svg>
